<?xml version="1.0" encoding="UTF-8" standalone="no"?><svg xmlns="http://www.w3.org/2000/svg" xmlns:xlink="http://www.w3.org/1999/xlink" contentScriptType="application/ecmascript" contentStyleType="text/css" height="195px" preserveAspectRatio="none" style="width:602px;height:195px;" version="1.1" viewBox="0 0 602 195" width="602px" zoomAndPan="magnify"><defs><filter height="300%" id="f9a4dkl" width="300%" x="-1" y="-1"><feGaussianBlur result="blurOut" stdDeviation="2.0"/><feColorMatrix in="blurOut" result="blurOut2" type="matrix" values="0 0 0 0 0 0 0 0 0 0 0 0 0 0 0 0 0 0 .4 0"/><feOffset dx="4.0" dy="4.0" in="blurOut2" result="blurOut3"/><feBlend in="SourceGraphic" in2="blurOut3" mode="normal"/></filter></defs><g><!--cluster <project>--><polygon fill="#FFFFFF" filter="url(#f9a4dkl)" points="22,24,100,24,107,46.4883,595,46.4883,595,188,22,188,22,24" style="stroke: #000000; stroke-width: 2.0;"/><line style="stroke: #000000; stroke-width: 2.0;" x1="22" x2="107" y1="46.4883" y2="46.4883"/><text fill="#000000" font-family="sans-serif" font-size="14" font-weight="bold" lengthAdjust="spacingAndGlyphs" textLength="72" x="26" y="39.5352">&lt;project&gt;</text><!--cluster ToDo_edl--><polygon fill="#FFFFFF" filter="url(#f9a4dkl)" points="252,67,252,164,571,164,571,77,561,67,252,67" style="stroke: #000000; stroke-width: 2.0;"/><path d="M561,67 L561,77 L571,77 " fill="#FFFFFF" style="stroke: #000000; stroke-width: 2.0;"/><text fill="#000000" font-family="sans-serif" font-size="14" font-weight="bold" lengthAdjust="spacingAndGlyphs" textLength="64" x="379.5" y="82.5352">ToDo.edl</text><!--entity objrec--><path d="M146.5,112.5 C146.5,102.5 190,102.5 190,102.5 C190,102.5 233.5,102.5 233.5,112.5 L233.5,137.9883 C233.5,147.9883 190,147.9883 190,147.9883 C190,147.9883 146.5,147.9883 146.5,137.9883 L146.5,112.5 " fill="#FFFFFF" filter="url(#f9a4dkl)" style="stroke: #000000; stroke-width: 1.5;"/><path d="M146.5,112.5 C146.5,122.5 190,122.5 190,122.5 C190,122.5 233.5,122.5 233.5,112.5 " fill="none" style="stroke: #000000; stroke-width: 1.5;"/><text fill="#000000" font-family="sans-serif" font-size="14" lengthAdjust="spacingAndGlyphs" textLength="67" x="156.5" y="140.0352">&lt;record&gt;</text><!--entity DOC--><polygon fill="#FFFFFF" filter="url(#f9a4dkl)" points="38.5,107,38.5,143.4883,111.5,143.4883,111.5,117,101.5,107,38.5,107" style="stroke: #000000; stroke-width: 1.5;"/><path d="M101.5,107 L101.5,117 L111.5,117 " fill="#FFFFFF" style="stroke: #000000; stroke-width: 1.5;"/><text fill="#000000" font-family="sans-serif" font-size="14" lengthAdjust="spacingAndGlyphs" textLength="53" x="48.5" y="130.5352">&lt;DOC&gt;</text><!--entity xtlgrepref--><rect fill="#FFFFFF" filter="url(#f9a4dkl)" height="46.4883" style="stroke: #000000; stroke-width: 1.5;" width="142" x="413" y="102"/><rect fill="#FFFFFF" height="10" style="stroke: #000000; stroke-width: 1.5;" width="15" x="535" y="107"/><rect fill="#FFFFFF" height="2" style="stroke: #000000; stroke-width: 1.5;" width="4" x="533" y="109"/><rect fill="#FFFFFF" height="2" style="stroke: #000000; stroke-width: 1.5;" width="4" x="533" y="113"/><text fill="#000000" font-family="sans-serif" font-size="14" lengthAdjust="spacingAndGlyphs" textLength="102" x="428" y="135.5352">&lt;XTLGrepRef&gt;</text><!--entity xtlref--><rect fill="#FFFFFF" filter="url(#f9a4dkl)" height="46.4883" style="stroke: #000000; stroke-width: 1.5;" width="109" x="268.5" y="102"/><rect fill="#FFFFFF" height="10" style="stroke: #000000; stroke-width: 1.5;" width="15" x="357.5" y="107"/><rect fill="#FFFFFF" height="2" style="stroke: #000000; stroke-width: 1.5;" width="4" x="355.5" y="109"/><rect fill="#FFFFFF" height="2" style="stroke: #000000; stroke-width: 1.5;" width="4" x="355.5" y="113"/><text fill="#000000" font-family="sans-serif" font-size="14" lengthAdjust="spacingAndGlyphs" textLength="69" x="283.5" y="135.5352">&lt;XTLRef&gt;</text></g></svg>