<?xml version="1.0" encoding="UTF-8" standalone="no"?><svg xmlns="http://www.w3.org/2000/svg" xmlns:xlink="http://www.w3.org/1999/xlink" contentScriptType="application/ecmascript" contentStyleType="text/css" height="22190px" preserveAspectRatio="none" style="width:1815px;height:22190px;" version="1.1" viewBox="0 0 1815 22190" width="1815px" zoomAndPan="magnify"><defs><filter height="300%" id="fn3bgy4" width="300%" x="-1" y="-1"><feGaussianBlur result="blurOut" stdDeviation="2.0"/><feColorMatrix in="blurOut" result="blurOut2" type="matrix" values="0 0 0 0 0 0 0 0 0 0 0 0 0 0 0 0 0 0 .4 0"/><feOffset dx="4.0" dy="4.0" in="blurOut2" result="blurOut3"/><feBlend in="SourceGraphic" in2="blurOut3" mode="normal"/></filter></defs><g><!--cluster res--><polygon fill="#FFFFFF" filter="url(#fn3bgy4)" points="158,24,186,24,193,46.4883,1668,46.4883,1668,22183,158,22183,158,24" style="stroke: #000000; stroke-width: 2.0;"/><line style="stroke: #000000; stroke-width: 2.0;" x1="158" x2="193" y1="46.4883" y2="46.4883"/><text fill="#000000" font-family="sans-serif" font-size="14" font-weight="bold" lengthAdjust="spacingAndGlyphs" textLength="22" x="162" y="39.5352">res</text><!--cluster txt--><polygon fill="#FFFFFF" filter="url(#fn3bgy4)" points="462,67,488,67,495,89.4883,1594,89.4883,1594,4181,462,4181,462,67" style="stroke: #000000; stroke-width: 2.0;"/><line style="stroke: #000000; stroke-width: 2.0;" x1="462" x2="495" y1="89.4883" y2="89.4883"/><text fill="#000000" font-family="sans-serif" font-size="14" font-weight="bold" lengthAdjust="spacingAndGlyphs" textLength="20" x="466" y="82.5352">txt</text><!--cluster txt2--><polygon fill="#FFFFFF" filter="url(#fn3bgy4)" points="724,9331,759,9331,766,9353.4883,1514,9353.4883,1514,17492,724,17492,724,9331" style="stroke: #000000; stroke-width: 2.0;"/><line style="stroke: #000000; stroke-width: 2.0;" x1="724" x2="766" y1="9353.4883" y2="9353.4883"/><text fill="#000000" font-family="sans-serif" font-size="14" font-weight="bold" lengthAdjust="spacingAndGlyphs" textLength="29" x="728" y="9346.5352">txt2</text><!--cluster lst--><polygon fill="#FFFFFF" filter="url(#fn3bgy4)" points="935,4648,960,4648,967,4670.4883,1415,4670.4883,1415,8778,935,8778,935,4648" style="stroke: #000000; stroke-width: 2.0;"/><line style="stroke: #000000; stroke-width: 2.0;" x1="935" x2="967" y1="4670.4883" y2="4670.4883"/><text fill="#000000" font-family="sans-serif" font-size="14" font-weight="bold" lengthAdjust="spacingAndGlyphs" textLength="19" x="939" y="4663.5352">lst</text><!--cluster todo--><polygon fill="#FFFFFF" filter="url(#fn3bgy4)" points="651,18029,690,18029,697,18051.4883,1161,18051.4883,1161,22159,651,22159,651,18029" style="stroke: #000000; stroke-width: 2.0;"/><line style="stroke: #000000; stroke-width: 2.0;" x1="651" x2="697" y1="18051.4883" y2="18051.4883"/><text fill="#000000" font-family="sans-serif" font-size="14" font-weight="bold" lengthAdjust="spacingAndGlyphs" textLength="33" x="655" y="18044.5352">todo</text><!--cluster task--><polygon fill="#FFFFFF" filter="url(#fn3bgy4)" points="182,67,219,67,226,89.4883,425,89.4883,425,4181,182,4181,182,67" style="stroke: #000000; stroke-width: 2.0;"/><line style="stroke: #000000; stroke-width: 2.0;" x1="182" x2="226" y1="89.4883" y2="89.4883"/><text fill="#000000" font-family="sans-serif" font-size="14" font-weight="bold" lengthAdjust="spacingAndGlyphs" textLength="31" x="186" y="82.5352">task</text><!--cluster zope.interface--><polygon fill="#FFFFFF" filter="url(#fn3bgy4)" points="1692,9199,1798,9199,1805,9221.4883,1808,9221.4883,1808,9298,1692,9298,1692,9199" style="stroke: #000000; stroke-width: 2.0;"/><line style="stroke: #000000; stroke-width: 2.0;" x1="1692" x2="1805" y1="9221.4883" y2="9221.4883"/><text fill="#000000" font-family="sans-serif" font-size="14" font-weight="bold" lengthAdjust="spacingAndGlyphs" textLength="100" x="1696" y="9214.5352">zope.interface</text><!--cluster UserDict--><polygon fill="#FFFFFF" filter="url(#fn3bgy4)" points="22,17897,89,17897,96,17919.4883,134,17919.4883,134,17996,22,17996,22,17897" style="stroke: #000000; stroke-width: 2.0;"/><line style="stroke: #000000; stroke-width: 2.0;" x1="22" x2="96" y1="17919.4883" y2="17919.4883"/><text fill="#000000" font-family="sans-serif" font-size="14" font-weight="bold" lengthAdjust="spacingAndGlyphs" textLength="61" x="26" y="17912.5352">UserDict</text><!--class AbstractTxtLineParser--><rect fill="#FEFECE" filter="url(#fn3bgy4)" height="48" style="stroke: #A80036; stroke-width: 1.5;" width="159" x="846.5" y="102"/><ellipse cx="861.5" cy="118" fill="#ADD1B2" rx="11" ry="11" style="stroke: #A80036; stroke-width: 1.0;"/><path d="M864.4731,123.6431 Q863.8921,123.9419 863.2529,124.0913 Q862.6138,124.2407 861.9082,124.2407 Q859.4014,124.2407 858.0815,122.5889 Q856.7617,120.937 856.7617,117.8159 Q856.7617,114.6865 858.0815,113.0347 Q859.4014,111.3828 861.9082,111.3828 Q862.6138,111.3828 863.2612,111.5322 Q863.9087,111.6816 864.4731,111.9805 L864.4731,114.7031 Q863.8423,114.1221 863.2488,113.8523 Q862.6553,113.5825 862.0244,113.5825 Q860.6797,113.5825 859.9949,114.6492 Q859.3101,115.7158 859.3101,117.8159 Q859.3101,119.9077 859.9949,120.9744 Q860.6797,122.041 862.0244,122.041 Q862.6553,122.041 863.2488,121.7712 Q863.8423,121.5015 864.4731,120.9204 Z "/><text fill="#000000" font-family="sans-serif" font-size="12" lengthAdjust="spacingAndGlyphs" textLength="127" x="875.5" y="122.5352">AbstractTxtLineParser</text><line style="stroke: #A80036; stroke-width: 1.5;" x1="847.5" x2="1004.5" y1="134" y2="134"/><line style="stroke: #A80036; stroke-width: 1.5;" x1="847.5" x2="1004.5" y1="142" y2="142"/><!--class AbstractTxtSegmentedRecordParser--><rect fill="#FEFECE" filter="url(#fn3bgy4)" height="48" style="stroke: #A80036; stroke-width: 1.5;" width="241" x="1164.5" y="4117"/><ellipse cx="1179.5" cy="4133" fill="#ADD1B2" rx="11" ry="11" style="stroke: #A80036; stroke-width: 1.0;"/><path d="M1182.4731,4138.6431 Q1181.8921,4138.9419 1181.2529,4139.0913 Q1180.6138,4139.2407 1179.9082,4139.2407 Q1177.4014,4139.2407 1176.0815,4137.5889 Q1174.7617,4135.937 1174.7617,4132.8159 Q1174.7617,4129.6865 1176.0815,4128.0347 Q1177.4014,4126.3828 1179.9082,4126.3828 Q1180.6138,4126.3828 1181.2612,4126.5322 Q1181.9087,4126.6816 1182.4731,4126.9805 L1182.4731,4129.7031 Q1181.8423,4129.1221 1181.2488,4128.8523 Q1180.6553,4128.5825 1180.0244,4128.5825 Q1178.6797,4128.5825 1177.9949,4129.6492 Q1177.3101,4130.7158 1177.3101,4132.8159 Q1177.3101,4134.9077 1177.9949,4135.9744 Q1178.6797,4137.041 1180.0244,4137.041 Q1180.6553,4137.041 1181.2488,4136.7712 Q1181.8423,4136.5015 1182.4731,4135.9204 Z "/><text fill="#000000" font-family="sans-serif" font-size="12" lengthAdjust="spacingAndGlyphs" textLength="209" x="1193.5" y="4137.5352">AbstractTxtSegmentedRecordParser</text><line style="stroke: #A80036; stroke-width: 1.5;" x1="1165.5" x2="1404.5" y1="4149" y2="4149"/><line style="stroke: #A80036; stroke-width: 1.5;" x1="1165.5" x2="1404.5" y1="4157" y2="4157"/><!--class AbstractTxtRecordParser--><rect fill="#FEFECE" filter="url(#fn3bgy4)" height="48" style="stroke: #A80036; stroke-width: 1.5;" width="177" x="478.5" y="4117"/><ellipse cx="493.5" cy="4133" fill="#ADD1B2" rx="11" ry="11" style="stroke: #A80036; stroke-width: 1.0;"/><path d="M496.4731,4138.6431 Q495.8921,4138.9419 495.2529,4139.0913 Q494.6138,4139.2407 493.9082,4139.2407 Q491.4014,4139.2407 490.0815,4137.5889 Q488.7617,4135.937 488.7617,4132.8159 Q488.7617,4129.6865 490.0815,4128.0347 Q491.4014,4126.3828 493.9082,4126.3828 Q494.6138,4126.3828 495.2612,4126.5322 Q495.9087,4126.6816 496.4731,4126.9805 L496.4731,4129.7031 Q495.8423,4129.1221 495.2488,4128.8523 Q494.6553,4128.5825 494.0244,4128.5825 Q492.6797,4128.5825 491.9949,4129.6492 Q491.3101,4130.7158 491.3101,4132.8159 Q491.3101,4134.9077 491.9949,4135.9744 Q492.6797,4137.041 494.0244,4137.041 Q494.6553,4137.041 495.2488,4136.7712 Q495.8423,4136.5015 496.4731,4135.9204 Z "/><text fill="#000000" font-family="sans-serif" font-size="12" lengthAdjust="spacingAndGlyphs" textLength="145" x="507.5" y="4137.5352">AbstractTxtRecordParser</text><line style="stroke: #A80036; stroke-width: 1.5;" x1="479.5" x2="654.5" y1="4149" y2="4149"/><line style="stroke: #A80036; stroke-width: 1.5;" x1="479.5" x2="654.5" y1="4157" y2="4157"/><!--class AbstractRecordIdStrategy--><rect fill="#FEFECE" filter="url(#fn3bgy4)" height="48" style="stroke: #A80036; stroke-width: 1.5;" width="178" x="691" y="4117"/><ellipse cx="706" cy="4133" fill="#ADD1B2" rx="11" ry="11" style="stroke: #A80036; stroke-width: 1.0;"/><path d="M708.9731,4138.6431 Q708.3921,4138.9419 707.7529,4139.0913 Q707.1138,4139.2407 706.4082,4139.2407 Q703.9014,4139.2407 702.5815,4137.5889 Q701.2617,4135.937 701.2617,4132.8159 Q701.2617,4129.6865 702.5815,4128.0347 Q703.9014,4126.3828 706.4082,4126.3828 Q707.1138,4126.3828 707.7612,4126.5322 Q708.4087,4126.6816 708.9731,4126.9805 L708.9731,4129.7031 Q708.3423,4129.1221 707.7488,4128.8523 Q707.1553,4128.5825 706.5244,4128.5825 Q705.1797,4128.5825 704.4949,4129.6492 Q703.8101,4130.7158 703.8101,4132.8159 Q703.8101,4134.9077 704.4949,4135.9744 Q705.1797,4137.041 706.5244,4137.041 Q707.1553,4137.041 707.7488,4136.7712 Q708.3423,4136.5015 708.9731,4135.9204 Z "/><text fill="#000000" font-family="sans-serif" font-size="12" lengthAdjust="spacingAndGlyphs" textLength="146" x="720" y="4137.5352">AbstractRecordIdStrategy</text><line style="stroke: #A80036; stroke-width: 1.5;" x1="692" x2="868" y1="4149" y2="4149"/><line style="stroke: #A80036; stroke-width: 1.5;" x1="692" x2="868" y1="4157" y2="4157"/><!--class AbstractRecordReferenceStrategy--><rect fill="#FEFECE" filter="url(#fn3bgy4)" height="48" style="stroke: #A80036; stroke-width: 1.5;" width="225" x="904.5" y="4117"/><ellipse cx="919.5" cy="4133" fill="#ADD1B2" rx="11" ry="11" style="stroke: #A80036; stroke-width: 1.0;"/><path d="M922.4731,4138.6431 Q921.8921,4138.9419 921.2529,4139.0913 Q920.6138,4139.2407 919.9082,4139.2407 Q917.4014,4139.2407 916.0815,4137.5889 Q914.7617,4135.937 914.7617,4132.8159 Q914.7617,4129.6865 916.0815,4128.0347 Q917.4014,4126.3828 919.9082,4126.3828 Q920.6138,4126.3828 921.2612,4126.5322 Q921.9087,4126.6816 922.4731,4126.9805 L922.4731,4129.7031 Q921.8423,4129.1221 921.2488,4128.8523 Q920.6553,4128.5825 920.0244,4128.5825 Q918.6797,4128.5825 917.9949,4129.6492 Q917.3101,4130.7158 917.3101,4132.8159 Q917.3101,4134.9077 917.9949,4135.9744 Q918.6797,4137.041 920.0244,4137.041 Q920.6553,4137.041 921.2488,4136.7712 Q921.8423,4136.5015 922.4731,4135.9204 Z "/><text fill="#000000" font-family="sans-serif" font-size="12" lengthAdjust="spacingAndGlyphs" textLength="193" x="933.5" y="4137.5352">AbstractRecordReferenceStrategy</text><line style="stroke: #A80036; stroke-width: 1.5;" x1="905.5" x2="1128.5" y1="4149" y2="4149"/><line style="stroke: #A80036; stroke-width: 1.5;" x1="905.5" x2="1128.5" y1="4157" y2="4157"/><!--class AbstractIdStrategy--><rect fill="#FEFECE" filter="url(#fn3bgy4)" height="48" style="stroke: #A80036; stroke-width: 1.5;" width="137" x="1440.5" y="4117"/><ellipse cx="1455.5" cy="4133" fill="#ADD1B2" rx="11" ry="11" style="stroke: #A80036; stroke-width: 1.0;"/><path d="M1458.4731,4138.6431 Q1457.8921,4138.9419 1457.2529,4139.0913 Q1456.6138,4139.2407 1455.9082,4139.2407 Q1453.4014,4139.2407 1452.0815,4137.5889 Q1450.7617,4135.937 1450.7617,4132.8159 Q1450.7617,4129.6865 1452.0815,4128.0347 Q1453.4014,4126.3828 1455.9082,4126.3828 Q1456.6138,4126.3828 1457.2612,4126.5322 Q1457.9087,4126.6816 1458.4731,4126.9805 L1458.4731,4129.7031 Q1457.8423,4129.1221 1457.2488,4128.8523 Q1456.6553,4128.5825 1456.0244,4128.5825 Q1454.6797,4128.5825 1453.9949,4129.6492 Q1453.3101,4130.7158 1453.3101,4132.8159 Q1453.3101,4134.9077 1453.9949,4135.9744 Q1454.6797,4137.041 1456.0244,4137.041 Q1456.6553,4137.041 1457.2488,4136.7712 Q1457.8423,4136.5015 1458.4731,4135.9204 Z "/><text fill="#000000" font-family="sans-serif" font-size="12" lengthAdjust="spacingAndGlyphs" textLength="105" x="1469.5" y="4137.5352">AbstractIdStrategy</text><line style="stroke: #A80036; stroke-width: 1.5;" x1="1441.5" x2="1576.5" y1="4149" y2="4149"/><line style="stroke: #A80036; stroke-width: 1.5;" x1="1441.5" x2="1576.5" y1="4157" y2="4157"/><!--class AbstractTxtListParser--><rect fill="#FEFECE" filter="url(#fn3bgy4)" height="48" style="stroke: #A80036; stroke-width: 1.5;" width="155" x="1422.5" y="102"/><ellipse cx="1437.5" cy="118" fill="#ADD1B2" rx="11" ry="11" style="stroke: #A80036; stroke-width: 1.0;"/><path d="M1440.4731,123.6431 Q1439.8921,123.9419 1439.2529,124.0913 Q1438.6138,124.2407 1437.9082,124.2407 Q1435.4014,124.2407 1434.0815,122.5889 Q1432.7617,120.937 1432.7617,117.8159 Q1432.7617,114.6865 1434.0815,113.0347 Q1435.4014,111.3828 1437.9082,111.3828 Q1438.6138,111.3828 1439.2612,111.5322 Q1439.9087,111.6816 1440.4731,111.9805 L1440.4731,114.7031 Q1439.8423,114.1221 1439.2488,113.8523 Q1438.6553,113.5825 1438.0244,113.5825 Q1436.6797,113.5825 1435.9949,114.6492 Q1435.3101,115.7158 1435.3101,117.8159 Q1435.3101,119.9077 1435.9949,120.9744 Q1436.6797,122.041 1438.0244,122.041 Q1438.6553,122.041 1439.2488,121.7712 Q1439.8423,121.5015 1440.4731,120.9204 Z "/><text fill="#000000" font-family="sans-serif" font-size="12" lengthAdjust="spacingAndGlyphs" textLength="123" x="1451.5" y="122.5352">AbstractTxtListParser</text><line style="stroke: #A80036; stroke-width: 1.5;" x1="1423.5" x2="1576.5" y1="134" y2="134"/><line style="stroke: #A80036; stroke-width: 1.5;" x1="1423.5" x2="1576.5" y1="142" y2="142"/><!--class AbstractTxtListWriter--><rect fill="#FEFECE" filter="url(#fn3bgy4)" height="48" style="stroke: #A80036; stroke-width: 1.5;" width="152" x="523" y="102"/><ellipse cx="538" cy="118" fill="#ADD1B2" rx="11" ry="11" style="stroke: #A80036; stroke-width: 1.0;"/><path d="M540.9731,123.6431 Q540.3921,123.9419 539.7529,124.0913 Q539.1138,124.2407 538.4082,124.2407 Q535.9014,124.2407 534.5815,122.5889 Q533.2617,120.937 533.2617,117.8159 Q533.2617,114.6865 534.5815,113.0347 Q535.9014,111.3828 538.4082,111.3828 Q539.1138,111.3828 539.7612,111.5322 Q540.4087,111.6816 540.9731,111.9805 L540.9731,114.7031 Q540.3423,114.1221 539.7488,113.8523 Q539.1553,113.5825 538.5244,113.5825 Q537.1797,113.5825 536.4949,114.6492 Q535.8101,115.7158 535.8101,117.8159 Q535.8101,119.9077 536.4949,120.9744 Q537.1797,122.041 538.5244,122.041 Q539.1553,122.041 539.7488,121.7712 Q540.3423,121.5015 540.9731,120.9204 Z "/><text fill="#000000" font-family="sans-serif" font-size="12" lengthAdjust="spacingAndGlyphs" textLength="120" x="552" y="122.5352">AbstractTxtListWriter</text><line style="stroke: #A80036; stroke-width: 1.5;" x1="524" x2="674" y1="134" y2="134"/><line style="stroke: #A80036; stroke-width: 1.5;" x1="524" x2="674" y1="142" y2="142"/><!--class ITxtLineParser--><rect fill="#FEFECE" filter="url(#fn3bgy4)" height="48" style="stroke: #A80036; stroke-width: 1.5;" width="114" x="740" y="13397"/><ellipse cx="755" cy="13413" fill="#ADD1B2" rx="11" ry="11" style="stroke: #A80036; stroke-width: 1.0;"/><path d="M757.9731,13418.6431 Q757.3921,13418.9419 756.7529,13419.0913 Q756.1138,13419.2407 755.4082,13419.2407 Q752.9014,13419.2407 751.5815,13417.5889 Q750.2617,13415.937 750.2617,13412.8159 Q750.2617,13409.6865 751.5815,13408.0347 Q752.9014,13406.3828 755.4082,13406.3828 Q756.1138,13406.3828 756.7612,13406.5322 Q757.4087,13406.6816 757.9731,13406.9805 L757.9731,13409.7031 Q757.3423,13409.1221 756.7488,13408.8523 Q756.1553,13408.5825 755.5244,13408.5825 Q754.1797,13408.5825 753.4949,13409.6492 Q752.8101,13410.7158 752.8101,13412.8159 Q752.8101,13414.9077 753.4949,13415.9744 Q754.1797,13417.041 755.5244,13417.041 Q756.1553,13417.041 756.7488,13416.7712 Q757.3423,13416.5015 757.9731,13415.9204 Z "/><text fill="#000000" font-family="sans-serif" font-size="12" lengthAdjust="spacingAndGlyphs" textLength="82" x="769" y="13417.5352">ITxtLineParser</text><line style="stroke: #A80036; stroke-width: 1.5;" x1="741" x2="853" y1="13429" y2="13429"/><line style="stroke: #A80036; stroke-width: 1.5;" x1="741" x2="853" y1="13437" y2="13437"/><!--class ITxtListParser--><rect fill="#FEFECE" filter="url(#fn3bgy4)" height="48" style="stroke: #A80036; stroke-width: 1.5;" width="110" x="1388" y="9366"/><ellipse cx="1403" cy="9382" fill="#ADD1B2" rx="11" ry="11" style="stroke: #A80036; stroke-width: 1.0;"/><path d="M1405.9731,9387.6431 Q1405.3921,9387.9419 1404.7529,9388.0913 Q1404.1138,9388.2407 1403.4082,9388.2407 Q1400.9014,9388.2407 1399.5815,9386.5889 Q1398.2617,9384.937 1398.2617,9381.8159 Q1398.2617,9378.6865 1399.5815,9377.0347 Q1400.9014,9375.3828 1403.4082,9375.3828 Q1404.1138,9375.3828 1404.7612,9375.5322 Q1405.4087,9375.6816 1405.9731,9375.9805 L1405.9731,9378.7031 Q1405.3423,9378.1221 1404.7488,9377.8523 Q1404.1553,9377.5825 1403.5244,9377.5825 Q1402.1797,9377.5825 1401.4949,9378.6492 Q1400.8101,9379.7158 1400.8101,9381.8159 Q1400.8101,9383.9077 1401.4949,9384.9744 Q1402.1797,9386.041 1403.5244,9386.041 Q1404.1553,9386.041 1404.7488,9385.7712 Q1405.3423,9385.5015 1405.9731,9384.9204 Z "/><text fill="#000000" font-family="sans-serif" font-size="12" lengthAdjust="spacingAndGlyphs" textLength="78" x="1417" y="9386.5352">ITxtListParser</text><line style="stroke: #A80036; stroke-width: 1.5;" x1="1389" x2="1497" y1="9398" y2="9398"/><line style="stroke: #A80036; stroke-width: 1.5;" x1="1389" x2="1497" y1="9406" y2="9406"/><!--class AbstractTxtLineParserRegexFields--><rect fill="#FEFECE" filter="url(#fn3bgy4)" height="48" style="stroke: #A80036; stroke-width: 1.5;" width="228" x="1131" y="17428"/><ellipse cx="1146" cy="17444" fill="#ADD1B2" rx="11" ry="11" style="stroke: #A80036; stroke-width: 1.0;"/><path d="M1148.9731,17449.6431 Q1148.3921,17449.9419 1147.7529,17450.0913 Q1147.1138,17450.2407 1146.4082,17450.2407 Q1143.9014,17450.2407 1142.5815,17448.5889 Q1141.2617,17446.937 1141.2617,17443.8159 Q1141.2617,17440.6865 1142.5815,17439.0347 Q1143.9014,17437.3828 1146.4082,17437.3828 Q1147.1138,17437.3828 1147.7612,17437.5322 Q1148.4087,17437.6816 1148.9731,17437.9805 L1148.9731,17440.7031 Q1148.3423,17440.1221 1147.7488,17439.8523 Q1147.1553,17439.5825 1146.5244,17439.5825 Q1145.1797,17439.5825 1144.4949,17440.6492 Q1143.8101,17441.7158 1143.8101,17443.8159 Q1143.8101,17445.9077 1144.4949,17446.9744 Q1145.1797,17448.041 1146.5244,17448.041 Q1147.1553,17448.041 1147.7488,17447.7712 Q1148.3423,17447.5015 1148.9731,17446.9204 Z "/><text fill="#000000" font-family="sans-serif" font-size="12" lengthAdjust="spacingAndGlyphs" textLength="196" x="1160" y="17448.5352">AbstractTxtLineParserRegexFields</text><line style="stroke: #A80036; stroke-width: 1.5;" x1="1132" x2="1358" y1="17460" y2="17460"/><line style="stroke: #A80036; stroke-width: 1.5;" x1="1132" x2="1358" y1="17468" y2="17468"/><!--class AbstractTxtLineParserSimpleFieldArgsStrategy--><rect fill="#FEFECE" filter="url(#fn3bgy4)" height="48" style="stroke: #A80036; stroke-width: 1.5;" width="296" x="1162" y="13397"/><ellipse cx="1177" cy="13413" fill="#ADD1B2" rx="11" ry="11" style="stroke: #A80036; stroke-width: 1.0;"/><path d="M1179.9731,13418.6431 Q1179.3921,13418.9419 1178.7529,13419.0913 Q1178.1138,13419.2407 1177.4082,13419.2407 Q1174.9014,13419.2407 1173.5815,13417.5889 Q1172.2617,13415.937 1172.2617,13412.8159 Q1172.2617,13409.6865 1173.5815,13408.0347 Q1174.9014,13406.3828 1177.4082,13406.3828 Q1178.1138,13406.3828 1178.7612,13406.5322 Q1179.4087,13406.6816 1179.9731,13406.9805 L1179.9731,13409.7031 Q1179.3423,13409.1221 1178.7488,13408.8523 Q1178.1553,13408.5825 1177.5244,13408.5825 Q1176.1797,13408.5825 1175.4949,13409.6492 Q1174.8101,13410.7158 1174.8101,13412.8159 Q1174.8101,13414.9077 1175.4949,13415.9744 Q1176.1797,13417.041 1177.5244,13417.041 Q1178.1553,13417.041 1178.7488,13416.7712 Q1179.3423,13416.5015 1179.9731,13415.9204 Z "/><text fill="#000000" font-family="sans-serif" font-size="12" lengthAdjust="spacingAndGlyphs" textLength="264" x="1191" y="13417.5352">AbstractTxtLineParserSimpleFieldArgsStrategy</text><line style="stroke: #A80036; stroke-width: 1.5;" x1="1163" x2="1457" y1="13429" y2="13429"/><line style="stroke: #A80036; stroke-width: 1.5;" x1="1163" x2="1457" y1="13437" y2="13437"/><!--class AbstractTxtLineParserTargetStrategy--><rect fill="#FEFECE" filter="url(#fn3bgy4)" height="48" style="stroke: #A80036; stroke-width: 1.5;" width="243" x="937.5" y="9366"/><ellipse cx="952.5" cy="9382" fill="#ADD1B2" rx="11" ry="11" style="stroke: #A80036; stroke-width: 1.0;"/><path d="M955.4731,9387.6431 Q954.8921,9387.9419 954.2529,9388.0913 Q953.6138,9388.2407 952.9082,9388.2407 Q950.4014,9388.2407 949.0815,9386.5889 Q947.7617,9384.937 947.7617,9381.8159 Q947.7617,9378.6865 949.0815,9377.0347 Q950.4014,9375.3828 952.9082,9375.3828 Q953.6138,9375.3828 954.2612,9375.5322 Q954.9087,9375.6816 955.4731,9375.9805 L955.4731,9378.7031 Q954.8423,9378.1221 954.2488,9377.8523 Q953.6553,9377.5825 953.0244,9377.5825 Q951.6797,9377.5825 950.9949,9378.6492 Q950.3101,9379.7158 950.3101,9381.8159 Q950.3101,9383.9077 950.9949,9384.9744 Q951.6797,9386.041 953.0244,9386.041 Q953.6553,9386.041 954.2488,9385.7712 Q954.8423,9385.5015 955.4731,9384.9204 Z "/><text fill="#000000" font-family="sans-serif" font-size="12" lengthAdjust="spacingAndGlyphs" textLength="211" x="966.5" y="9386.5352">AbstractTxtLineParserTargetStrategy</text><line style="stroke: #A80036; stroke-width: 1.5;" x1="938.5" x2="1179.5" y1="9398" y2="9398"/><line style="stroke: #A80036; stroke-width: 1.5;" x1="938.5" x2="1179.5" y1="9406" y2="9406"/><!--class AbstractTxtLineParserFieldsStrategy--><rect fill="#FEFECE" filter="url(#fn3bgy4)" height="48" style="stroke: #A80036; stroke-width: 1.5;" width="238" x="889" y="13397"/><ellipse cx="904" cy="13413" fill="#ADD1B2" rx="11" ry="11" style="stroke: #A80036; stroke-width: 1.0;"/><path d="M906.9731,13418.6431 Q906.3921,13418.9419 905.7529,13419.0913 Q905.1138,13419.2407 904.4082,13419.2407 Q901.9014,13419.2407 900.5815,13417.5889 Q899.2617,13415.937 899.2617,13412.8159 Q899.2617,13409.6865 900.5815,13408.0347 Q901.9014,13406.3828 904.4082,13406.3828 Q905.1138,13406.3828 905.7612,13406.5322 Q906.4087,13406.6816 906.9731,13406.9805 L906.9731,13409.7031 Q906.3423,13409.1221 905.7488,13408.8523 Q905.1553,13408.5825 904.5244,13408.5825 Q903.1797,13408.5825 902.4949,13409.6492 Q901.8101,13410.7158 901.8101,13412.8159 Q901.8101,13414.9077 902.4949,13415.9744 Q903.1797,13417.041 904.5244,13417.041 Q905.1553,13417.041 905.7488,13416.7712 Q906.3423,13416.5015 906.9731,13415.9204 Z "/><text fill="#000000" font-family="sans-serif" font-size="12" lengthAdjust="spacingAndGlyphs" textLength="206" x="918" y="13417.5352">AbstractTxtLineParserFieldsStrategy</text><line style="stroke: #A80036; stroke-width: 1.5;" x1="890" x2="1126" y1="13429" y2="13429"/><line style="stroke: #A80036; stroke-width: 1.5;" x1="890" x2="1126" y1="13437" y2="13437"/><!--class SimpleTxtLineItem--><rect fill="#FEFECE" filter="url(#fn3bgy4)" height="48" style="stroke: #A80036; stroke-width: 1.5;" width="137" x="1215.5" y="9366"/><ellipse cx="1230.5" cy="9382" fill="#ADD1B2" rx="11" ry="11" style="stroke: #A80036; stroke-width: 1.0;"/><path d="M1233.4731,9387.6431 Q1232.8921,9387.9419 1232.2529,9388.0913 Q1231.6138,9388.2407 1230.9082,9388.2407 Q1228.4014,9388.2407 1227.0815,9386.5889 Q1225.7617,9384.937 1225.7617,9381.8159 Q1225.7617,9378.6865 1227.0815,9377.0347 Q1228.4014,9375.3828 1230.9082,9375.3828 Q1231.6138,9375.3828 1232.2612,9375.5322 Q1232.9087,9375.6816 1233.4731,9375.9805 L1233.4731,9378.7031 Q1232.8423,9378.1221 1232.2488,9377.8523 Q1231.6553,9377.5825 1231.0244,9377.5825 Q1229.6797,9377.5825 1228.9949,9378.6492 Q1228.3101,9379.7158 1228.3101,9381.8159 Q1228.3101,9383.9077 1228.9949,9384.9744 Q1229.6797,9386.041 1231.0244,9386.041 Q1231.6553,9386.041 1232.2488,9385.7712 Q1232.8423,9385.5015 1233.4731,9384.9204 Z "/><text fill="#000000" font-family="sans-serif" font-size="12" lengthAdjust="spacingAndGlyphs" textLength="105" x="1244.5" y="9386.5352">SimpleTxtLineItem</text><line style="stroke: #A80036; stroke-width: 1.5;" x1="1216.5" x2="1351.5" y1="9398" y2="9398"/><line style="stroke: #A80036; stroke-width: 1.5;" x1="1216.5" x2="1351.5" y1="9406" y2="9406"/><!--class ConcreteTxtLineParser--><rect fill="#FEFECE" filter="url(#fn3bgy4)" height="48" style="stroke: #A80036; stroke-width: 1.5;" width="162" x="740" y="9366"/><ellipse cx="755" cy="9382" fill="#ADD1B2" rx="11" ry="11" style="stroke: #A80036; stroke-width: 1.0;"/><path d="M757.9731,9387.6431 Q757.3921,9387.9419 756.7529,9388.0913 Q756.1138,9388.2407 755.4082,9388.2407 Q752.9014,9388.2407 751.5815,9386.5889 Q750.2617,9384.937 750.2617,9381.8159 Q750.2617,9378.6865 751.5815,9377.0347 Q752.9014,9375.3828 755.4082,9375.3828 Q756.1138,9375.3828 756.7612,9375.5322 Q757.4087,9375.6816 757.9731,9375.9805 L757.9731,9378.7031 Q757.3423,9378.1221 756.7488,9377.8523 Q756.1553,9377.5825 755.5244,9377.5825 Q754.1797,9377.5825 753.4949,9378.6492 Q752.8101,9379.7158 752.8101,9381.8159 Q752.8101,9383.9077 753.4949,9384.9744 Q754.1797,9386.041 755.5244,9386.041 Q756.1553,9386.041 756.7488,9385.7712 Q757.3423,9385.5015 757.9731,9384.9204 Z "/><text fill="#000000" font-family="sans-serif" font-size="12" lengthAdjust="spacingAndGlyphs" textLength="130" x="769" y="9386.5352">ConcreteTxtLineParser</text><line style="stroke: #A80036; stroke-width: 1.5;" x1="741" x2="901" y1="9398" y2="9398"/><line style="stroke: #A80036; stroke-width: 1.5;" x1="741" x2="901" y1="9406" y2="9406"/><!--class ListItemTxtParser--><rect fill="#FEFECE" filter="url(#fn3bgy4)" height="48" style="stroke: #A80036; stroke-width: 1.5;" width="132" x="951" y="4683"/><ellipse cx="966" cy="4699" fill="#ADD1B2" rx="11" ry="11" style="stroke: #A80036; stroke-width: 1.0;"/><path d="M968.9731,4704.6431 Q968.3921,4704.9419 967.7529,4705.0913 Q967.1138,4705.2407 966.4082,4705.2407 Q963.9014,4705.2407 962.5815,4703.5889 Q961.2617,4701.937 961.2617,4698.8159 Q961.2617,4695.6865 962.5815,4694.0347 Q963.9014,4692.3828 966.4082,4692.3828 Q967.1138,4692.3828 967.7612,4692.5322 Q968.4087,4692.6816 968.9731,4692.9805 L968.9731,4695.7031 Q968.3423,4695.1221 967.7488,4694.8523 Q967.1553,4694.5825 966.5244,4694.5825 Q965.1797,4694.5825 964.4949,4695.6492 Q963.8101,4696.7158 963.8101,4698.8159 Q963.8101,4700.9077 964.4949,4701.9744 Q965.1797,4703.041 966.5244,4703.041 Q967.1553,4703.041 967.7488,4702.7712 Q968.3423,4702.5015 968.9731,4701.9204 Z "/><text fill="#000000" font-family="sans-serif" font-size="12" lengthAdjust="spacingAndGlyphs" textLength="100" x="980" y="4703.5352">ListItemTxtParser</text><line style="stroke: #A80036; stroke-width: 1.5;" x1="952" x2="1082" y1="4715" y2="4715"/><line style="stroke: #A80036; stroke-width: 1.5;" x1="952" x2="1082" y1="4723" y2="4723"/><!--class ListTxtParser--><rect fill="#FEFECE" filter="url(#fn3bgy4)" height="48" style="stroke: #A80036; stroke-width: 1.5;" width="107" x="1291.5" y="8714"/><ellipse cx="1306.5" cy="8730" fill="#ADD1B2" rx="11" ry="11" style="stroke: #A80036; stroke-width: 1.0;"/><path d="M1309.4731,8735.6431 Q1308.8921,8735.9419 1308.2529,8736.0913 Q1307.6138,8736.2407 1306.9082,8736.2407 Q1304.4014,8736.2407 1303.0815,8734.5889 Q1301.7617,8732.937 1301.7617,8729.8159 Q1301.7617,8726.6865 1303.0815,8725.0347 Q1304.4014,8723.3828 1306.9082,8723.3828 Q1307.6138,8723.3828 1308.2612,8723.5322 Q1308.9087,8723.6816 1309.4731,8723.9805 L1309.4731,8726.7031 Q1308.8423,8726.1221 1308.2488,8725.8523 Q1307.6553,8725.5825 1307.0244,8725.5825 Q1305.6797,8725.5825 1304.9949,8726.6492 Q1304.3101,8727.7158 1304.3101,8729.8159 Q1304.3101,8731.9077 1304.9949,8732.9744 Q1305.6797,8734.041 1307.0244,8734.041 Q1307.6553,8734.041 1308.2488,8733.7712 Q1308.8423,8733.5015 1309.4731,8732.9204 Z "/><text fill="#000000" font-family="sans-serif" font-size="12" lengthAdjust="spacingAndGlyphs" textLength="75" x="1320.5" y="8734.5352">ListTxtParser</text><line style="stroke: #A80036; stroke-width: 1.5;" x1="1292.5" x2="1397.5" y1="8746" y2="8746"/><line style="stroke: #A80036; stroke-width: 1.5;" x1="1292.5" x2="1397.5" y1="8754" y2="8754"/><!--class URLListItemParser--><rect fill="#FEFECE" filter="url(#fn3bgy4)" height="48" style="stroke: #A80036; stroke-width: 1.5;" width="135" x="1118.5" y="4683"/><ellipse cx="1133.5" cy="4699" fill="#ADD1B2" rx="11" ry="11" style="stroke: #A80036; stroke-width: 1.0;"/><path d="M1136.4731,4704.6431 Q1135.8921,4704.9419 1135.2529,4705.0913 Q1134.6138,4705.2407 1133.9082,4705.2407 Q1131.4014,4705.2407 1130.0815,4703.5889 Q1128.7617,4701.937 1128.7617,4698.8159 Q1128.7617,4695.6865 1130.0815,4694.0347 Q1131.4014,4692.3828 1133.9082,4692.3828 Q1134.6138,4692.3828 1135.2612,4692.5322 Q1135.9087,4692.6816 1136.4731,4692.9805 L1136.4731,4695.7031 Q1135.8423,4695.1221 1135.2488,4694.8523 Q1134.6553,4694.5825 1134.0244,4694.5825 Q1132.6797,4694.5825 1131.9949,4695.6492 Q1131.3101,4696.7158 1131.3101,4698.8159 Q1131.3101,4700.9077 1131.9949,4701.9744 Q1132.6797,4703.041 1134.0244,4703.041 Q1134.6553,4703.041 1135.2488,4702.7712 Q1135.8423,4702.5015 1136.4731,4701.9204 Z "/><text fill="#000000" font-family="sans-serif" font-size="12" lengthAdjust="spacingAndGlyphs" textLength="103" x="1147.5" y="4703.5352">URLListItemParser</text><line style="stroke: #A80036; stroke-width: 1.5;" x1="1119.5" x2="1252.5" y1="4715" y2="4715"/><line style="stroke: #A80036; stroke-width: 1.5;" x1="1119.5" x2="1252.5" y1="4723" y2="4723"/><!--class URLListParser--><rect fill="#FEFECE" filter="url(#fn3bgy4)" height="48" style="stroke: #A80036; stroke-width: 1.5;" width="110" x="1289" y="4683"/><ellipse cx="1304" cy="4699" fill="#ADD1B2" rx="11" ry="11" style="stroke: #A80036; stroke-width: 1.0;"/><path d="M1306.9731,4704.6431 Q1306.3921,4704.9419 1305.7529,4705.0913 Q1305.1138,4705.2407 1304.4082,4705.2407 Q1301.9014,4705.2407 1300.5815,4703.5889 Q1299.2617,4701.937 1299.2617,4698.8159 Q1299.2617,4695.6865 1300.5815,4694.0347 Q1301.9014,4692.3828 1304.4082,4692.3828 Q1305.1138,4692.3828 1305.7612,4692.5322 Q1306.4087,4692.6816 1306.9731,4692.9805 L1306.9731,4695.7031 Q1306.3423,4695.1221 1305.7488,4694.8523 Q1305.1553,4694.5825 1304.5244,4694.5825 Q1303.1797,4694.5825 1302.4949,4695.6492 Q1301.8101,4696.7158 1301.8101,4698.8159 Q1301.8101,4700.9077 1302.4949,4701.9744 Q1303.1797,4703.041 1304.5244,4703.041 Q1305.1553,4703.041 1305.7488,4702.7712 Q1306.3423,4702.5015 1306.9731,4701.9204 Z "/><text fill="#000000" font-family="sans-serif" font-size="12" lengthAdjust="spacingAndGlyphs" textLength="78" x="1318" y="4703.5352">URLListParser</text><line style="stroke: #A80036; stroke-width: 1.5;" x1="1290" x2="1398" y1="4715" y2="4715"/><line style="stroke: #A80036; stroke-width: 1.5;" x1="1290" x2="1398" y1="4723" y2="4723"/><!--class ListTxtWriter--><rect fill="#FEFECE" filter="url(#fn3bgy4)" height="48" style="stroke: #A80036; stroke-width: 1.5;" width="104" x="1134" y="8714"/><ellipse cx="1149" cy="8730" fill="#ADD1B2" rx="11" ry="11" style="stroke: #A80036; stroke-width: 1.0;"/><path d="M1151.9731,8735.6431 Q1151.3921,8735.9419 1150.7529,8736.0913 Q1150.1138,8736.2407 1149.4082,8736.2407 Q1146.9014,8736.2407 1145.5815,8734.5889 Q1144.2617,8732.937 1144.2617,8729.8159 Q1144.2617,8726.6865 1145.5815,8725.0347 Q1146.9014,8723.3828 1149.4082,8723.3828 Q1150.1138,8723.3828 1150.7612,8723.5322 Q1151.4087,8723.6816 1151.9731,8723.9805 L1151.9731,8726.7031 Q1151.3423,8726.1221 1150.7488,8725.8523 Q1150.1553,8725.5825 1149.5244,8725.5825 Q1148.1797,8725.5825 1147.4949,8726.6492 Q1146.8101,8727.7158 1146.8101,8729.8159 Q1146.8101,8731.9077 1147.4949,8732.9744 Q1148.1797,8734.041 1149.5244,8734.041 Q1150.1553,8734.041 1150.7488,8733.7712 Q1151.3423,8733.5015 1151.9731,8732.9204 Z "/><text fill="#000000" font-family="sans-serif" font-size="12" lengthAdjust="spacingAndGlyphs" textLength="72" x="1163" y="8734.5352">ListTxtWriter</text><line style="stroke: #A80036; stroke-width: 1.5;" x1="1135" x2="1237" y1="8746" y2="8746"/><line style="stroke: #A80036; stroke-width: 1.5;" x1="1135" x2="1237" y1="8754" y2="8754"/><!--class TodoListItemParser--><rect fill="#FEFECE" filter="url(#fn3bgy4)" height="48" style="stroke: #A80036; stroke-width: 1.5;" width="143" x="820.5" y="18064"/><ellipse cx="835.5" cy="18080" fill="#ADD1B2" rx="11" ry="11" style="stroke: #A80036; stroke-width: 1.0;"/><path d="M838.4731,18085.6431 Q837.8921,18085.9419 837.2529,18086.0913 Q836.6138,18086.2407 835.9082,18086.2407 Q833.4014,18086.2407 832.0815,18084.5889 Q830.7617,18082.937 830.7617,18079.8159 Q830.7617,18076.6865 832.0815,18075.0347 Q833.4014,18073.3828 835.9082,18073.3828 Q836.6138,18073.3828 837.2612,18073.5322 Q837.9087,18073.6816 838.4731,18073.9805 L838.4731,18076.7031 Q837.8423,18076.1221 837.2488,18075.8523 Q836.6553,18075.5825 836.0244,18075.5825 Q834.6797,18075.5825 833.9949,18076.6492 Q833.3101,18077.7158 833.3101,18079.8159 Q833.3101,18081.9077 833.9949,18082.9744 Q834.6797,18084.041 836.0244,18084.041 Q836.6553,18084.041 837.2488,18083.7712 Q837.8423,18083.5015 838.4731,18082.9204 Z "/><text fill="#000000" font-family="sans-serif" font-size="12" lengthAdjust="spacingAndGlyphs" textLength="111" x="849.5" y="18084.5352">TodoListItemParser</text><line style="stroke: #A80036; stroke-width: 1.5;" x1="821.5" x2="962.5" y1="18096" y2="18096"/><line style="stroke: #A80036; stroke-width: 1.5;" x1="821.5" x2="962.5" y1="18104" y2="18104"/><!--class TodoListParser--><rect fill="#FEFECE" filter="url(#fn3bgy4)" height="48" style="stroke: #A80036; stroke-width: 1.5;" width="118" x="1027" y="22095"/><ellipse cx="1042" cy="22111" fill="#ADD1B2" rx="11" ry="11" style="stroke: #A80036; stroke-width: 1.0;"/><path d="M1044.9731,22116.6431 Q1044.3921,22116.9419 1043.7529,22117.0913 Q1043.1138,22117.2407 1042.4082,22117.2407 Q1039.9014,22117.2407 1038.5815,22115.5889 Q1037.2617,22113.937 1037.2617,22110.8159 Q1037.2617,22107.6865 1038.5815,22106.0347 Q1039.9014,22104.3828 1042.4082,22104.3828 Q1043.1138,22104.3828 1043.7612,22104.5322 Q1044.4087,22104.6816 1044.9731,22104.9805 L1044.9731,22107.7031 Q1044.3423,22107.1221 1043.7488,22106.8523 Q1043.1553,22106.5825 1042.5244,22106.5825 Q1041.1797,22106.5825 1040.4949,22107.6492 Q1039.8101,22108.7158 1039.8101,22110.8159 Q1039.8101,22112.9077 1040.4949,22113.9744 Q1041.1797,22115.041 1042.5244,22115.041 Q1043.1553,22115.041 1043.7488,22114.7712 Q1044.3423,22114.5015 1044.9731,22113.9204 Z "/><text fill="#000000" font-family="sans-serif" font-size="12" lengthAdjust="spacingAndGlyphs" textLength="86" x="1056" y="22115.5352">TodoListParser</text><line style="stroke: #A80036; stroke-width: 1.5;" x1="1028" x2="1144" y1="22127" y2="22127"/><line style="stroke: #A80036; stroke-width: 1.5;" x1="1028" x2="1144" y1="22135" y2="22135"/><!--class TodoTxtTaskParser--><rect fill="#FEFECE" filter="url(#fn3bgy4)" height="48" style="stroke: #A80036; stroke-width: 1.5;" width="146" x="999" y="18064"/><ellipse cx="1014" cy="18080" fill="#ADD1B2" rx="11" ry="11" style="stroke: #A80036; stroke-width: 1.0;"/><path d="M1016.9731,18085.6431 Q1016.3921,18085.9419 1015.7529,18086.0913 Q1015.1138,18086.2407 1014.4082,18086.2407 Q1011.9014,18086.2407 1010.5815,18084.5889 Q1009.2617,18082.937 1009.2617,18079.8159 Q1009.2617,18076.6865 1010.5815,18075.0347 Q1011.9014,18073.3828 1014.4082,18073.3828 Q1015.1138,18073.3828 1015.7612,18073.5322 Q1016.4087,18073.6816 1016.9731,18073.9805 L1016.9731,18076.7031 Q1016.3423,18076.1221 1015.7488,18075.8523 Q1015.1553,18075.5825 1014.5244,18075.5825 Q1013.1797,18075.5825 1012.4949,18076.6492 Q1011.8101,18077.7158 1011.8101,18079.8159 Q1011.8101,18081.9077 1012.4949,18082.9744 Q1013.1797,18084.041 1014.5244,18084.041 Q1015.1553,18084.041 1015.7488,18083.7712 Q1016.3423,18083.5015 1016.9731,18082.9204 Z "/><text fill="#000000" font-family="sans-serif" font-size="12" lengthAdjust="spacingAndGlyphs" textLength="114" x="1028" y="18084.5352">TodoTxtTaskParser</text><line style="stroke: #A80036; stroke-width: 1.5;" x1="1000" x2="1144" y1="18096" y2="18096"/><line style="stroke: #A80036; stroke-width: 1.5;" x1="1000" x2="1144" y1="18104" y2="18104"/><!--class TodoTxtParser--><rect fill="#FEFECE" filter="url(#fn3bgy4)" height="48" style="stroke: #A80036; stroke-width: 1.5;" width="118" x="667" y="18064"/><ellipse cx="682" cy="18080" fill="#ADD1B2" rx="11" ry="11" style="stroke: #A80036; stroke-width: 1.0;"/><path d="M684.9731,18085.6431 Q684.3921,18085.9419 683.7529,18086.0913 Q683.1138,18086.2407 682.4082,18086.2407 Q679.9014,18086.2407 678.5815,18084.5889 Q677.2617,18082.937 677.2617,18079.8159 Q677.2617,18076.6865 678.5815,18075.0347 Q679.9014,18073.3828 682.4082,18073.3828 Q683.1138,18073.3828 683.7612,18073.5322 Q684.4087,18073.6816 684.9731,18073.9805 L684.9731,18076.7031 Q684.3423,18076.1221 683.7488,18075.8523 Q683.1553,18075.5825 682.5244,18075.5825 Q681.1797,18075.5825 680.4949,18076.6492 Q679.8101,18077.7158 679.8101,18079.8159 Q679.8101,18081.9077 680.4949,18082.9744 Q681.1797,18084.041 682.5244,18084.041 Q683.1553,18084.041 683.7488,18083.7712 Q684.3423,18083.5015 684.9731,18082.9204 Z "/><text fill="#000000" font-family="sans-serif" font-size="12" lengthAdjust="spacingAndGlyphs" textLength="86" x="696" y="18084.5352">TodoTxtParser</text><line style="stroke: #A80036; stroke-width: 1.5;" x1="668" x2="784" y1="18096" y2="18096"/><line style="stroke: #A80036; stroke-width: 1.5;" x1="668" x2="784" y1="18104" y2="18104"/><!--class Task--><rect fill="#FEFECE" filter="url(#fn3bgy4)" height="48" style="stroke: #A80036; stroke-width: 1.5;" width="60" x="198" y="102"/><ellipse cx="213" cy="118" fill="#ADD1B2" rx="11" ry="11" style="stroke: #A80036; stroke-width: 1.0;"/><path d="M215.9731,123.6431 Q215.3921,123.9419 214.7529,124.0913 Q214.1138,124.2407 213.4082,124.2407 Q210.9014,124.2407 209.5815,122.5889 Q208.2617,120.937 208.2617,117.8159 Q208.2617,114.6865 209.5815,113.0347 Q210.9014,111.3828 213.4082,111.3828 Q214.1138,111.3828 214.7612,111.5322 Q215.4087,111.6816 215.9731,111.9805 L215.9731,114.7031 Q215.3423,114.1221 214.7488,113.8523 Q214.1553,113.5825 213.5244,113.5825 Q212.1797,113.5825 211.4949,114.6492 Q210.8101,115.7158 210.8101,117.8159 Q210.8101,119.9077 211.4949,120.9744 Q212.1797,122.041 213.5244,122.041 Q214.1553,122.041 214.7488,121.7712 Q215.3423,121.5015 215.9731,120.9204 Z "/><text fill="#000000" font-family="sans-serif" font-size="12" lengthAdjust="spacingAndGlyphs" textLength="28" x="227" y="122.5352">Task</text><line style="stroke: #A80036; stroke-width: 1.5;" x1="199" x2="257" y1="134" y2="134"/><line style="stroke: #A80036; stroke-width: 1.5;" x1="199" x2="257" y1="142" y2="142"/><!--class TaskListParser--><rect fill="#FEFECE" filter="url(#fn3bgy4)" height="48" style="stroke: #A80036; stroke-width: 1.5;" width="116" x="293" y="102"/><ellipse cx="308" cy="118" fill="#ADD1B2" rx="11" ry="11" style="stroke: #A80036; stroke-width: 1.0;"/><path d="M310.9731,123.6431 Q310.3921,123.9419 309.7529,124.0913 Q309.1138,124.2407 308.4082,124.2407 Q305.9014,124.2407 304.5815,122.5889 Q303.2617,120.937 303.2617,117.8159 Q303.2617,114.6865 304.5815,113.0347 Q305.9014,111.3828 308.4082,111.3828 Q309.1138,111.3828 309.7612,111.5322 Q310.4087,111.6816 310.9731,111.9805 L310.9731,114.7031 Q310.3423,114.1221 309.7488,113.8523 Q309.1553,113.5825 308.5244,113.5825 Q307.1797,113.5825 306.4949,114.6492 Q305.8101,115.7158 305.8101,117.8159 Q305.8101,119.9077 306.4949,120.9744 Q307.1797,122.041 308.5244,122.041 Q309.1553,122.041 309.7488,121.7712 Q310.3423,121.5015 310.9731,120.9204 Z "/><text fill="#000000" font-family="sans-serif" font-size="12" lengthAdjust="spacingAndGlyphs" textLength="84" x="322" y="122.5352">TaskListParser</text><line style="stroke: #A80036; stroke-width: 1.5;" x1="294" x2="408" y1="134" y2="134"/><line style="stroke: #A80036; stroke-width: 1.5;" x1="294" x2="408" y1="142" y2="142"/><!--class RedisSEIStore--><rect fill="#FEFECE" filter="url(#fn3bgy4)" height="48" style="stroke: #A80036; stroke-width: 1.5;" width="109" x="198.5" y="4117"/><ellipse cx="213.5" cy="4133" fill="#ADD1B2" rx="11" ry="11" style="stroke: #A80036; stroke-width: 1.0;"/><path d="M216.4731,4138.6431 Q215.8921,4138.9419 215.2529,4139.0913 Q214.6138,4139.2407 213.9082,4139.2407 Q211.4014,4139.2407 210.0815,4137.5889 Q208.7617,4135.937 208.7617,4132.8159 Q208.7617,4129.6865 210.0815,4128.0347 Q211.4014,4126.3828 213.9082,4126.3828 Q214.6138,4126.3828 215.2612,4126.5322 Q215.9087,4126.6816 216.4731,4126.9805 L216.4731,4129.7031 Q215.8423,4129.1221 215.2488,4128.8523 Q214.6553,4128.5825 214.0244,4128.5825 Q212.6797,4128.5825 211.9949,4129.6492 Q211.3101,4130.7158 211.3101,4132.8159 Q211.3101,4134.9077 211.9949,4135.9744 Q212.6797,4137.041 214.0244,4137.041 Q214.6553,4137.041 215.2488,4136.7712 Q215.8423,4136.5015 216.4731,4135.9204 Z "/><text fill="#000000" font-family="sans-serif" font-size="12" lengthAdjust="spacingAndGlyphs" textLength="77" x="227.5" y="4137.5352">RedisSEIStore</text><line style="stroke: #A80036; stroke-width: 1.5;" x1="199.5" x2="306.5" y1="4149" y2="4149"/><line style="stroke: #A80036; stroke-width: 1.5;" x1="199.5" x2="306.5" y1="4157" y2="4157"/><!--class zope.interface.Interface--><rect fill="#FEFECE" filter="url(#fn3bgy4)" height="48" style="stroke: #A80036; stroke-width: 1.5;" width="82" x="1708" y="9234"/><ellipse cx="1723" cy="9250" fill="#ADD1B2" rx="11" ry="11" style="stroke: #A80036; stroke-width: 1.0;"/><path d="M1725.9731,9255.6431 Q1725.3921,9255.9419 1724.7529,9256.0913 Q1724.1138,9256.2407 1723.4082,9256.2407 Q1720.9014,9256.2407 1719.5815,9254.5889 Q1718.2617,9252.937 1718.2617,9249.8159 Q1718.2617,9246.6865 1719.5815,9245.0347 Q1720.9014,9243.3828 1723.4082,9243.3828 Q1724.1138,9243.3828 1724.7612,9243.5322 Q1725.4087,9243.6816 1725.9731,9243.9805 L1725.9731,9246.7031 Q1725.3423,9246.1221 1724.7488,9245.8523 Q1724.1553,9245.5825 1723.5244,9245.5825 Q1722.1797,9245.5825 1721.4949,9246.6492 Q1720.8101,9247.7158 1720.8101,9249.8159 Q1720.8101,9251.9077 1721.4949,9252.9744 Q1722.1797,9254.041 1723.5244,9254.041 Q1724.1553,9254.041 1724.7488,9253.7712 Q1725.3423,9253.5015 1725.9731,9252.9204 Z "/><text fill="#000000" font-family="sans-serif" font-size="12" lengthAdjust="spacingAndGlyphs" textLength="50" x="1737" y="9254.5352">Interface</text><line style="stroke: #A80036; stroke-width: 1.5;" x1="1709" x2="1789" y1="9266" y2="9266"/><line style="stroke: #A80036; stroke-width: 1.5;" x1="1709" x2="1789" y1="9274" y2="9274"/><!--class UserDict.UserDict--><rect fill="#FEFECE" filter="url(#fn3bgy4)" height="48" style="stroke: #A80036; stroke-width: 1.5;" width="80" x="38" y="17932"/><ellipse cx="53" cy="17948" fill="#ADD1B2" rx="11" ry="11" style="stroke: #A80036; stroke-width: 1.0;"/><path d="M55.9731,17953.6431 Q55.3921,17953.9419 54.7529,17954.0913 Q54.1138,17954.2407 53.4082,17954.2407 Q50.9014,17954.2407 49.5815,17952.5889 Q48.2617,17950.937 48.2617,17947.8159 Q48.2617,17944.6865 49.5815,17943.0347 Q50.9014,17941.3828 53.4082,17941.3828 Q54.1138,17941.3828 54.7612,17941.5322 Q55.4087,17941.6816 55.9731,17941.9805 L55.9731,17944.7031 Q55.3423,17944.1221 54.7488,17943.8523 Q54.1553,17943.5825 53.5244,17943.5825 Q52.1797,17943.5825 51.4949,17944.6492 Q50.8101,17945.7158 50.8101,17947.8159 Q50.8101,17949.9077 51.4949,17950.9744 Q52.1797,17952.041 53.5244,17952.041 Q54.1553,17952.041 54.7488,17951.7712 Q55.3423,17951.5015 55.9731,17950.9204 Z "/><text fill="#000000" font-family="sans-serif" font-size="12" lengthAdjust="spacingAndGlyphs" textLength="48" x="67" y="17952.5352">UserDict</text><line style="stroke: #A80036; stroke-width: 1.5;" x1="39" x2="117" y1="17964" y2="17964"/><line style="stroke: #A80036; stroke-width: 1.5;" x1="39" x2="117" y1="17972" y2="17972"/><path d="M1025.1988,142.209 C1092.7623,156.1585 1170,179.1745 1170,211.5 C1170,211.5 1170,211.5 1170,4055.5 C1170,4083.4885 1192.2087,4103.3894 1217.1067,4116.9059 " fill="none" style="stroke: #A80036; stroke-width: 1.0;"/><polygon fill="none" points="1023.8286,149.0737,1005.5571,138.3428,1026.5325,135.3373,1023.8286,149.0737" style="stroke: #A80036; stroke-width: 1.0;"/><path d="M826.3228,134.2058 C735.0255,144.5584 614,166.7259 614,211.5 C614,211.5 614,211.5 614,4055.5 C614,4078.1978 601.1226,4100.5597 588.8489,4116.7185 " fill="none" style="stroke: #A80036; stroke-width: 1.0;"/><polygon fill="none" points="825.8317,127.2186,846.462,132.055,827.3184,141.1394,825.8317,127.2186" style="stroke: #A80036; stroke-width: 1.0;"/><path d="M864.2991,162.6281 C850.0631,175.7506 839,192.1676 839,211.5 C839,211.5 839,211.5 839,4055.5 C839,4079.1257 823.5505,4100.9607 808.4631,4116.6511 " fill="none" style="stroke: #A80036; stroke-width: 1.0;"/><polygon fill="none" points="859.9468,157.1456,879.9525,150.1616,868.6686,168.097,859.9468,157.1456" style="stroke: #A80036; stroke-width: 1.0;"/><path d="M957.094,167.5059 C964.3473,180.8605 970,196.182 970,211.5 C970,211.5 970,211.5 970,4055.5 C970,4078.1978 982.8774,4100.5597 995.1511,4116.7185 " fill="none" style="stroke: #A80036; stroke-width: 1.0;"/><polygon fill="none" points="950.8992,170.8035,946.1971,150.1422,962.7575,163.3617,950.8992,170.8035" style="stroke: #A80036; stroke-width: 1.0;"/><path d="M1502.8616,170.2991 C1503.5042,183.5452 1504,198.1063 1504,211.5 C1504,211.5 1504,211.5 1504,4055.5 C1504,4076.1681 1505.4741,4099.5986 1506.8215,4116.6985 " fill="none" style="stroke: #A80036; stroke-width: 1.0;"/><polygon fill="none" points="1495.8715,170.6694,1501.7428,150.3095,1509.8496,169.887,1495.8715,170.6694" style="stroke: #A80036; stroke-width: 1.0;"/><path d="M1744.4728,9302.2593 C1742.2319,9327.8644 1740,9360.717 1740,9390 C1740,9390 1740,9390 1740,13335.5 C1740,13432.1862 966.9423,13378.7192 872,13397 C866.2274,13398.1115 860.278,13399.5267 854.3741,13401.1123 " fill="none" style="stroke: #A80036; stroke-width: 1.0;"/><polygon fill="none" points="1737.5083,9301.5524,1746.3484,9282.2949,1751.4469,9302.862,1737.5083,9301.5524" style="stroke: #A80036; stroke-width: 1.0;"/><path d="M1689.6494,9285.291 C1668.655,9294.8274 1644.8336,9305.5153 1623,9315 C1581.3918,9333.0749 1534.0245,9352.7767 1498.3274,9367.4499 " fill="none" style="stroke: #A80036; stroke-width: 1.0;"/><polygon fill="none" points="1686.8954,9278.8535,1707.9971,9276.9244,1692.7041,9291.5916,1686.8954,9278.8535" style="stroke: #A80036; stroke-width: 1.0;"/><path d="M1025.8684,128.2941 C1216.6164,134.014 1614,152.9557 1614,211.5 C1614,211.5 1614,211.5 1614,9258 C1614,9335.4486 992.9065,9296.8673 920,9323 C893.4304,9332.5237 867.1505,9350.8376 848.3513,9365.9143 " fill="none" style="stroke: #A80036; stroke-width: 1.0;"/><polygon fill="none" points="1025.3855,135.2832,1005.5945,127.7127,1025.7869,121.289,1025.3855,135.2832" style="stroke: #A80036; stroke-width: 1.0;"/><path d="M815.7715,9414.1969 C812.5378,9431.2488 809,9454.665 809,9475.5 C809,9475.5 809,9475.5 809,13335.5 C809,13354.3818 806.0945,13375.3834 803.1428,13391.8468 " fill="none" style="stroke: #A80036; stroke-width: 1.0;"/><polygon fill="#A80036" points="802.2285,13396.8031,807.7952,13388.6783,803.1358,13391.8861,799.928,13387.2267,802.2285,13396.8031" style="stroke: #A80036; stroke-width: 1.0;"/><text fill="#000000" font-family="sans-serif" font-size="13" lengthAdjust="spacingAndGlyphs" textLength="74" x="810" y="11410.5684">implements</text><path d="M1027.906,9431.5059 C1020.6527,9444.8605 1015,9460.182 1015,9475.5 C1015,9475.5 1015,9475.5 1015,13335.5 C1015,13356.2018 1012.9363,13379.6295 1011.0499,13396.7196 " fill="none" style="stroke: #A80036; stroke-width: 1.0;"/><polygon fill="none" points="1022.2425,9427.3617,1038.8029,9414.1422,1034.1008,9434.8035,1022.2425,9427.3617" style="stroke: #A80036; stroke-width: 1.0;"/><path d="M1153.056,9424.4354 C1170.838,9436.9895 1184,9453.6589 1184,9475.5 C1184,9475.5 1184,9475.5 1184,13335.5 C1184,13364.0507 1206.4253,13383.7289 1232.3545,13396.9394 " fill="none" style="stroke: #A80036; stroke-width: 1.0;"/><polygon fill="none" points="1149.2393,9430.3091,1135.6717,9414.0326,1156.4281,9418.2957,1149.2393,9430.3091" style="stroke: #A80036; stroke-width: 1.0;"/><path d="M950.6208,4711.7276 C858.7424,4720.1281 704,4741.8019 704,4792.5 C704,4792.5 704,4792.5 704,13335.5 C704,13360.2758 722.1088,13379.8344 742.3447,13393.9559 " fill="none" style="stroke: #A80036; stroke-width: 1.0;"/><polygon fill="#A80036" points="746.6893,13396.8867,741.465,13388.5376,742.5442,13394.0906,736.9912,13395.1698,746.6893,13396.8867" style="stroke: #A80036; stroke-width: 1.0;"/><text fill="#000000" font-family="sans-serif" font-size="13" lengthAdjust="spacingAndGlyphs" textLength="74" x="705" y="9024.5684">implements</text><path d="M1200.7658,4175.8599 C1182.7417,4188.9812 1169,4206.2732 1169,4228.5 C1169,4228.5 1169,4228.5 1169,4600.5 C1169,4635.4511 1129.851,4620.2719 1101,4640 C1081.5981,4653.2669 1060.946,4669.7049 1044.9746,4682.9785 " fill="none" style="stroke: #A80036; stroke-width: 1.0;"/><polygon fill="none" points="1197.1891,4169.8406,1217.8582,4165.1726,1204.6114,4181.7112,1197.1891,4169.8406" style="stroke: #A80036; stroke-width: 1.0;"/><path d="M638.2504,4173.709 C679.7617,4193.8975 724,4217.8991 724,4228.5 C724,4228.5 724,4228.5 724,4600.5 C724,4648.4675 864.4624,4681.0667 950.8797,4696.5838 " fill="none" style="stroke: #A80036; stroke-width: 1.0;"/><polygon fill="none" points="635.1748,4179.9975,620.153,4165.0527,641.2158,4167.3679,635.1748,4179.9975" style="stroke: #A80036; stroke-width: 1.0;"/><path d="M850.7019,4176.7235 C867.1704,4190.1213 880,4207.3469 880,4228.5 C880,4228.5 880,4228.5 880,4600.5 C880,4639.9651 915.8743,4666.9278 950.9078,4683.8494 " fill="none" style="stroke: #A80036; stroke-width: 1.0;"/><polygon fill="none" points="846.4313,4182.278,834.0975,4165.0479,854.4842,4170.8258,846.4313,4182.278" style="stroke: #A80036; stroke-width: 1.0;"/><path d="M1017,4185.2749 C1017,4199.117 1017,4214.4436 1017,4228.5 C1017,4228.5 1017,4228.5 1017,4600.5 C1017,4628.7891 1017,4661.3049 1017,4682.8906 " fill="none" style="stroke: #A80036; stroke-width: 1.0;"/><polygon fill="none" points="1010.0001,4185.1408,1017,4165.1408,1024.0001,4185.1408,1010.0001,4185.1408" style="stroke: #A80036; stroke-width: 1.0;"/><path d="M1367.2061,8762.0453 C1380.1709,8778.6065 1394,8801.8214 1394,8825.5 C1394,8825.5 1394,8825.5 1394,9258 C1394,9295.28 1411.39,9334.9887 1425.4504,9361.0018 " fill="none" style="stroke: #A80036; stroke-width: 1.0;"/><polygon fill="#A80036" points="1428.0321,9365.696,1427.1998,9355.8824,1425.6226,9361.3149,1420.19,9359.7377,1428.0321,9365.696" style="stroke: #A80036; stroke-width: 1.0;"/><text fill="#000000" font-family="sans-serif" font-size="13" lengthAdjust="spacingAndGlyphs" textLength="74" x="1395" y="9024.5684">implements</text><path d="M1483.2614,4183.2366 C1476.9671,4197.1496 1472,4213.0298 1472,4228.5 C1472,4228.5 1472,4228.5 1472,8652.5 C1472,8689.9773 1433.4733,8712.1083 1398.8594,8724.4288 " fill="none" style="stroke: #A80036; stroke-width: 1.0;"/><polygon fill="none" points="1477.2356,4179.6511,1492.6636,4165.126,1489.6609,4186.1018,1477.2356,4179.6511" style="stroke: #A80036; stroke-width: 1.0;"/><path d="M1035.2079,4743.5666 C1041.0317,4758.3836 1046,4775.8913 1046,4792.5 C1046,4792.5 1046,4792.5 1046,8652.5 C1046,8655.6508 1205.1155,8699.7042 1291.1995,8723.3073 " fill="none" style="stroke: #A80036; stroke-width: 1.0;"/><polygon fill="#A80036" points="1029.9732,4731.3284,1028.6551,4738.418,1034.6924,4742.3615,1036.0105,4735.2719,1029.9732,4731.3284" style="stroke: #A80036; stroke-width: 1.0;"/><text fill="#000000" font-family="sans-serif" font-size="13" lengthAdjust="spacingAndGlyphs" textLength="74" x="1047" y="6727.5684">item_parser</text><path d="M1110.7175,17463.4557 C1020.4932,17475.0018 918,17497.3861 918,17539.5 C918,17539.5 918,17539.5 918,17956 C918,17994.3055 907.3296,18037.7049 899.6602,18063.9511 " fill="none" style="stroke: #A80036; stroke-width: 1.0;"/><polygon fill="none" points="1109.9365,17456.4993,1130.6313,17461.0519,1111.6143,17470.3984,1109.9365,17456.4993" style="stroke: #A80036; stroke-width: 1.0;"/><path d="M826.2147,138.6787 C684.5178,157.3655 442,192.1717 442,211.5 C442,211.5 442,211.5 442,17956 C442,18016.9987 762.8663,18005.7717 803,18021 C827.592,18030.3312 851.1732,18048.6572 867.877,18063.7875 " fill="none" style="stroke: #A80036; stroke-width: 1.0;"/><polygon fill="none" points="825.6088,131.6983,846.3484,136.0423,827.4265,145.5798,825.6088,131.6983" style="stroke: #A80036; stroke-width: 1.0;"/><path d="M589.9561,4183.5279 C595.5699,4197.4561 600,4213.2717 600,4228.5 C600,4228.5 600,4228.5 600,17956 C600,18041.89 901.9509,17987.4094 981,18021 C1005.1954,18031.2814 1028.994,18049.1566 1046.182,18063.8588 " fill="none" style="stroke: #A80036; stroke-width: 1.0;"/><polygon fill="none" points="583.5932,4186.4457,581.5703,4165.3528,596.3054,4180.5804,583.5932,4186.4457" style="stroke: #A80036; stroke-width: 1.0;"/><path d="M137.8478,17968.1912 C261.4747,17993.3745 543.7475,18050.8745 666.8097,18075.9427 " fill="none" style="stroke: #A80036; stroke-width: 1.0;"/><polygon fill="none" points="136.2466,17975.0089,118.0463,17964.1576,139.0411,17961.2906,136.2466,17975.0089" style="stroke: #A80036; stroke-width: 1.0;"/><path d="M935.1377,18121.4394 C948.6013,18135.688 960,18153.6213 960,18173.5 C960,18173.5 960,18173.5 960,22033.5 C960,22068.6596 994.009,22090.3638 1026.6895,22103.1034 " fill="none" style="stroke: #A80036; stroke-width: 1.0;"/><polygon fill="#A80036" points="925.6016,18112.185,927.1216,18119.2341,934.2131,18120.5421,932.6931,18113.4931,925.6016,18112.185" style="stroke: #A80036; stroke-width: 1.0;"/><text fill="#000000" font-family="sans-serif" font-size="13" lengthAdjust="spacingAndGlyphs" textLength="114" x="961" y="20108.5684">label=item_parser</text><path d="M1365.1821,9415.2311 C1424.2781,9434.8092 1494,9460.9837 1494,9475.5 C1494,9475.5 1494,9475.5 1494,22033.5 C1494,22068.6909 1258.4845,22099.7625 1145.3267,22112.6604 " fill="none" style="stroke: #A80036; stroke-width: 1.0;"/><polygon fill="#A80036" points="1352.7619,9411.16,1357.2175,9416.8299,1364.165,9414.8977,1359.7093,9409.2278,1352.7619,9411.16" style="stroke: #A80036; stroke-width: 1.0;"/><text fill="#000000" font-family="sans-serif" font-size="13" lengthAdjust="spacingAndGlyphs" textLength="119" x="1495" y="15689.5684">label=item_builder</text><path d="M1596.5456,147.522 C1626.1128,160.2105 1651,180.1901 1651,211.5 C1651,211.5 1651,211.5 1651,22033.5 C1651,22084.2506 1290.0177,22108.4962 1145.1313,22116.1836 " fill="none" style="stroke: #A80036; stroke-width: 1.0;"/><polygon fill="none" points="1594.0235,154.0526,1577.7116,140.5277,1598.8975,140.9284,1594.0235,154.0526" style="stroke: #A80036; stroke-width: 1.0;"/><path d="M1300.6997,13465.1239 C1298.6115,13478.3649 1297,13492.9671 1297,13506.5 C1297,13506.5 1297,13506.5 1297,17366.5 C1297,17389.6067 1282.9645,17411.7817 1269.4773,17427.7562 " fill="none" style="stroke: #A80036; stroke-width: 1.0;"/><polygon fill="none" points="1293.8629,13463.5956,1304.3358,13445.175,1307.636,13466.1061,1293.8629,13463.5956" style="stroke: #A80036; stroke-width: 1.0;"/></g></svg>